<svg height="60" viewBox="0 0 64 64" width="60" xmlns="http://www.w3.org/2000/svg"><g id="Bitcoin-23" data-name="Bitcoin"><path d="m24.414 50.586a2 2 0 0 1 1.414-.586h13.1a3.925 3.925 0 0 0 2-.54l15.522-8.96a3.006 3.006 0 0 0 1.1-4.1 2.932 2.932 0 0 0 -1.25-1.17 3 3 0 0 0 -2.85.07l-11.64 6.72a2.814 2.814 0 0 1 -.69 1.1 2.993 2.993 0 0 1 -2.12.88 2.993 2.993 0 0 0 2.12-.88 2.814 2.814 0 0 0 .69-1.1 2.776 2.776 0 0 0 .18-1.32 2.955 2.955 0 0 0 -.99-1.95 3.062 3.062 0 0 0 -2.01-.75h-8.162a2 2 0 0 1 -1.414-.586l-.244-.244a4 4 0 0 0 -2.825-1.17h-7.685c-.13 0-.26.01-.4.02a3.989 3.989 0 0 0 -2.43 1.15l-3.33 3.33 11 11z" fill="#ffbcab"/><path d="m25 53-1.5-1.5-11-11-1.64-1.64-7.86 8.14v14h14z" fill="#006df0"/><circle cx="41" cy="19" fill="#fbb040" r="16"/><circle cx="41" cy="19" fill="#ff9811" r="12"/><path d="m41 7a11.968 11.968 0 0 0 -1.5.1 11.989 11.989 0 0 1 0 23.792 12 12 0 1 0 1.5-23.892z" fill="#ee8700"/><g fill="#231f20"><path d="m58.416 35.9a3.921 3.921 0 0 0 -1.665-1.563 4 4 0 0 0 -3.8.1l-10.037 5.79a3.967 3.967 0 0 0 -1.258-2.227 4.056 4.056 0 0 0 -2.666-1h-8.162a1.009 1.009 0 0 1 -.707-.293l-.244-.244a4.961 4.961 0 0 0 -3.531-1.463h-7.686c-.149 0-.3.01-.5.025a5 5 0 0 0 -3.038 1.438l-2.622 2.623-.933-.933a.948.948 0 0 0 -.715-.293 1 1 0 0 0 -.711.3l-7.861 8.145a1.006 1.006 0 0 0 -.28.695v14a1 1 0 0 0 1 1h14a1 1 0 0 0 .707-.293l8-8a1 1 0 0 0 0-1.414l-.793-.793.207-.207a1.009 1.009 0 0 1 .707-.293h13.1a4.93 4.93 0 0 0 2.5-.674l15.52-8.96a3.962 3.962 0 0 0 2-3.466 4.012 4.012 0 0 0 -.532-2zm-41.83 24.1h-12.586v-12.6l6.873-7.117 12.713 12.717zm39.364-20.366-15.529 8.966a2.935 2.935 0 0 1 -1.491.4h-13.1a2.978 2.978 0 0 0 -2.121.879l-.207.207-9.588-9.586 2.623-2.623a2.987 2.987 0 0 1 1.808-.86c.11-.009.213-.017.315-.017h7.686a2.977 2.977 0 0 1 2.117.877l.244.244a2.978 2.978 0 0 0 2.121.879h8.162a2.053 2.053 0 0 1 1.345.5 1.965 1.965 0 0 1 .659 1.288 1.871 1.871 0 0 1 -.134.92 1.81 1.81 0 0 1 -.447.708 1.986 1.986 0 0 1 -1.413.584h-6.58a1 1 0 0 0 0 2h6.58a3.979 3.979 0 0 0 2.828-1.173 3.846 3.846 0 0 0 .78-1.113l11.338-6.546a2.009 2.009 0 0 1 1.913-.04 1.926 1.926 0 0 1 .824.77 2.025 2.025 0 0 1 .267 1 1.983 1.983 0 0 1 -1 1.736z"/><path d="m41 32a13 13 0 1 0 -13-13 13.015 13.015 0 0 0 13 13zm0-24a11 11 0 1 1 -11 11 11.013 11.013 0 0 1 11-11z"/><path d="m47 16a4 4 0 0 0 -4-4v-1a1 1 0 0 0 -2 0v1h-1.017c0-.31.009-.657.017-.977a1 1 0 0 0 -.977-1.023.977.977 0 0 0 -1.023.977c-.01.417-.016.739-.02 1.023h-1.98a1 1 0 0 0 0 2h1v10h-1a1 1 0 0 0 0 2h2v1a1 1 0 0 0 2 0v-1h1v1a1 1 0 0 0 2 0v-1a3.983 3.983 0 0 0 2.618-7 3.975 3.975 0 0 0 1.382-3zm-4 8h-4v-4h4a2 2 0 0 1 0 4zm0-6h-4v-4h4a2 2 0 0 1 0 4z"/><path d="m41 36a17 17 0 1 0 -17-17 17.019 17.019 0 0 0 17 17zm0-32a15 15 0 1 1 -15 15 15.017 15.017 0 0 1 15-15z"/></g></g></svg>